HIERARCHY
ROOT pelvis
{
	OFFSET 0.000000 0.000000 0.000000
	CHANNELS 6 Xposition Yposition Zposition Zrotation Xrotation Yrotation
	JOINT lfemur
	{
		OFFSET 11.446000 0.000000 0.000000
		CHANNELS 3 Zrotation Xrotation Yrotation
		JOINT ltibia
		{
			OFFSET 0.000000 -42.030400 0.000000
			CHANNELS 3 Zrotation Xrotation Yrotation
			JOINT lfoot
			{
				OFFSET 0.000000 -39.930200 0.000000
				CHANNELS 3 Zrotation Xrotation Yrotation
				JOINT ltoes
				{
					OFFSET 0.000000 0.000000 11.775800
					CHANNELS 3 Zrotation Xrotation Yrotation
					End Site
					{
					    OFFSET 0.000000 0.000000 5.000000
					}
				}
			}
		}
	}
	JOINT rfemur
	{
		OFFSET -11.446000 0.000000 0.000000
		CHANNELS 3 Zrotation Xrotation Yrotation
		JOINT rtibia
		{
			OFFSET 0.000000 -42.030400 0.000000
			CHANNELS 3 Zrotation Xrotation Yrotation
			JOINT rfoot
			{
				OFFSET 0.000000 -39.930200 0.000000
				CHANNELS 3 Zrotation Xrotation Yrotation
				JOINT rtoes
				{
					OFFSET 0.000000 0.000000 11.775800
					CHANNELS 3 Zrotation Xrotation Yrotation
					End Site
					{
					    OFFSET 0.000000 0.000000 5.000000
					}
				}
			}
		}
	}
	JOINT thorax
	{
		OFFSET 0.000000 11.255600 -5.000000
		CHANNELS 3 Zrotation Xrotation Yrotation
		JOINT head
		{
			OFFSET 0.000000 43.799300 0.000000
			CHANNELS 3 Zrotation Xrotation Yrotation
			End Site
			{
			    OFFSET 0.000000 5.000000 0.000000
			}
		}
		JOINT lclavicle
		{
			OFFSET 0.000000 39.863000 0.000000
			CHANNELS 3 Zrotation Xrotation Yrotation
			JOINT lhumerus
			{
				OFFSET 17.380600 4.958300 0.000000
				CHANNELS 3 Zrotation Xrotation Yrotation
				JOINT lradius
				{
					OFFSET 0.000000 -27.561300 0.000000
					CHANNELS 3 Zrotation Xrotation Yrotation
					JOINT lhand
					{
						OFFSET 0.000000 -26.933000 0.000000
						CHANNELS 3 Zrotation Xrotation Yrotation
						End Site
						{
						    OFFSET 0.000000 -5.000000 0.000000
						}
					}
				}
			}
		}
		JOINT rclavicle
		{
			OFFSET 0.000000 39.863000 0.000000
			CHANNELS 3 Zrotation Xrotation Yrotation
			JOINT rhumerus
			{
				OFFSET -17.380600 4.958300 0.000000
				CHANNELS 3 Zrotation Xrotation Yrotation
				JOINT rradius
				{
					OFFSET 0.000000 -27.561300 0.000000
					CHANNELS 3 Zrotation Xrotation Yrotation
					JOINT rhand
					{
						OFFSET 0.000000 -26.933000 0.000000
						CHANNELS 3 Zrotation Xrotation Yrotation
						End Site
						{
						    OFFSET 0.000000 -5.000000 0.000000
						}
					}
				}
			}
		}
	}
}
MOTION
Frames:	22
Frame Time:	0.0333333
-201.848 88.7551 -43.5777 0.669027 -1.12966 87.1114 -1.19981 -0.643184 1.65416 1.51972 11.476 13.4299 3.48064 2.11617 0.0378485 -5.36701e-016 -5 -1.59635e-015 1.74596 1.61888 -0.834875 -1.22501 10.3102 -11.4216 -2.15949 3.03691 -0.137963 -9.54094e-016 -5 -6.38541e-015 -3.16711 -2.06211 -1.68357 0.760622 14.3782 -2.10157 7.95139e-016 2.48481e-016 -7.95139e-016 12.6337 -11.278 62.8152 4.24875 -0.0889489 -116.379 9.4072 -7.9054 -8.84373 7.95139e-016 2.48481e-016 -7.95139e-016 -14.5176 -3.95806 -21.9838 15.3899 -3.45218 65.3352 -1.34962 -0.724728 9.86223 
-201.877 88.7682 -43.6226 0.652905 -1.17488 87.0552 -1.18774 -0.641905 1.65592 1.51778 11.4139 13.482 3.48141 2.14556 0.0378974 -6.56007e-016 -5 1.59635e-015 1.77861 1.50568 -0.7989 -1.26117 10.5229 -11.3616 -2.02759 3.06222 -0.138238 1.0734e-015 -5 3.1927e-015 -3.17227 -2.04593 -1.67313 0.841016 14.3197 -2.05014 -7.95139e-016 6.4605e-016 -7.95139e-016 12.6789 -11.4471 63.1156 4.52683 -0.0865981 -116.679 8.72744 -7.73437 -8.93491 -7.95139e-016 6.4605e-016 -7.95139e-016 -14.387 -3.83551 -21.4053 15.3862 -3.93296 64.7963 -1.20232 -1.08268 9.86604 
-201.928 88.763 -43.6777 0.673709 -1.21943 87.1217 -1.15103 -0.74769 1.69523 1.48666 11.5823 13.3497 3.6022 2.0796 0.0380601 3.04142e-015 -5 -1.59635e-015 1.73257 1.68523 -0.86697 -1.1651 10.0992 -11.3346 -2.07676 3.23547 -0.138554 -7.95139e-016 -5 -0 -3.26177 -1.82293 -1.64808 0.910042 14.1674 -2.23189 7.95139e-016 4.96962e-016 7.95139e-016 12.6758 -11.9192 63.4003 5.02061 -0.133464 -117.662 10.3317 -8.63041 -8.67538 7.95139e-016 4.96962e-016 7.95139e-016 -14.3772 -4.10314 -22.0551 15.3942 -3.4196 65.1772 -1.40509 -1.23652 9.85341 
-201.967 88.7561 -43.7341 0.713435 -1.24873 87.2725 -1.19932 -0.885692 1.61429 1.58152 11.8522 13.2756 3.62375 1.99334 0.0382595 2.78299e-015 -5 -0 1.73289 1.64562 -0.888195 -1.14732 10.2489 -11.5002 -2.12454 3.16382 -0.1409 -1.59028e-015 -5 -0 -3.33363 -1.6031 -1.66689 1.16252 14.1902 -2.33428 -7.95139e-016 -1.39149e-015 -7.95139e-016 12.7832 -12.2688 63.4435 5.19 -0.0031669 -118.144 10.4737 -8.45807 -8.6739 -7.95139e-016 -1.39149e-015 -7.95139e-016 -14.3894 -4.27451 -21.738 15.5022 -3.40432 64.7734 -1.61157 -1.03976 9.84417 
-201.974 88.7465 -43.7705 0.768551 -1.31284 87.3791 -1.1341 -0.905714 1.66966 1.55736 11.9741 13.1436 3.6619 1.9159 0.0384932 1.33184e-015 -5 1.59635e-015 1.79797 1.69377 -0.831253 -1.17489 10.268 -11.6359 -2.03662 3.18937 -0.142542 3.97569e-016 -5 -0 -3.34227 -1.52141 -1.73999 1.36777 14.3697 -2.49743 0 3.08116e-015 -0 12.7375 -12.2788 63.3669 5.08196 -0.110669 -117.347 9.89154 -8.45598 -8.74186 0 3.08116e-015 -0 -14.2974 -4.34994 -22.5669 15.4408 -2.89617 65.7118 -1.73018 -0.957423 9.8392 
-201.994 88.7484 -43.8155 0.765101 -1.3182 87.281 -1.11724 -0.868688 1.74705 1.45934 11.8822 13.199 3.71371 1.93736 0.0387601 1.59028e-015 -5 -0 1.73476 1.60338 -0.877482 -1.14227 10.3825 -11.4784 -2.02303 3.17982 -0.144131 -4.37218e-016 -5 -9.57811e-015 -3.16085 -1.47384 -1.6797 1.23609 14.5177 -2.33831 -7.95139e-016 4.87022e-015 -0 12.6225 -12.4478 63.4206 4.96406 -0.0652211 -116.923 9.08876 -8.00084 -8.87648 -7.95139e-016 4.87022e-015 -0 -14.3406 -4.44076 -22.9124 15.3616 -2.81414 66.0788 -1.64939 -1.21518 9.84009 
-202.061 88.7373 -43.884 0.657718 -1.22629 87.1492 -1.28669 -1.02273 1.62052 1.49565 11.9014 13.4421 3.719 1.96346 0.039055 -1.45115e-015 -5 1.59635e-015 1.58168 1.20191 -0.937483 -1.13822 10.8645 -11.3042 -2.05667 2.95219 -0.145653 1.39149e-015 -5 -0 -3.04772 -1.34956 -1.575 1.00764 14.3722 -1.95417 -1.31038e-032 9.44227e-016 7.95139e-016 12.5586 -12.7553 63.7015 4.98088 -0.0835539 -117.13 9.21384 -8.19071 -8.84613 -1.31038e-032 9.44227e-016 7.95139e-016 -14.397 -4.68668 -22.6739 15.3799 -2.9333 65.7836 -1.45943 -1.11426 9.85234 
-202.041 88.7305 -43.8769 0.675615 -1.20262 87.263 -1.2546 -0.984415 1.66815 1.41138 11.8643 13.2713 3.75017 1.95458 0.0393738 1.84872e-015 -5 -1.59635e-015 1.57669 1.21178 -0.960241 -1.14077 10.9414 -11.3975 -1.98128 2.89676 -0.147169 5.16876e-016 -5 -3.1927e-015 -3.11756 -1.36034 -1.57849 0.957761 14.4217 -2.0179 7.95139e-016 2.93207e-015 7.95139e-016 12.6791 -12.7825 63.6876 4.82997 -0.076612 -116.778 8.78489 -7.88604 -8.92037 7.95139e-016 2.93207e-015 7.95139e-016 -14.2603 -4.61979 -22.6124 15.388 -2.97584 65.9205 -1.09444 -1.22316 9.87097 
-202.042 88.7141 -43.8728 0.630389 -1.14361 87.1892 -1.32249 -1.05301 1.6242 1.42326 11.934 13.3678 3.74619 1.91578 0.0397134 2.38542e-015 -5 -0 1.48747 0.987872 -1.01894 -1.10251 11.2862 -11.2622 -1.95989 2.71504 -0.14865 -5.16876e-016 -5 3.1927e-015 -3.13942 -1.39174 -1.52645 0.825726 14.4453 -1.80965 1.59028e-015 6.95746e-016 -7.95139e-016 12.6928 -12.8187 63.7694 4.89781 -0.00313137 -117.002 9.0794 -7.96444 -8.87936 1.59028e-015 6.95746e-016 -7.95139e-016 -14.1791 -4.57894 -22.2964 15.4042 -3.06953 65.5771 -1.32998 -1.4386 9.85595 
-202.028 88.7017 -43.849 0.555679 -1.06652 87.1955 -1.46191 -1.09719 1.46079 1.55013 11.8836 13.5509 3.60122 1.93046 0.0400728 3.57812e-015 -5 -0 1.4538 0.809465 -0.99755 -1.155 11.5199 -11.2867 -1.91025 2.56598 -0.150126 -1.31201e-015 -5 3.1927e-015 -3.25275 -1.55834 -1.47851 0.742733 14.643 -1.83164 3.03456e-032 -2.18663e-015 7.95139e-016 12.6505 -12.6973 63.5482 4.93941 0.0183618 -117.029 9.62149 -8.35605 -8.78468 3.03456e-032 -2.18663e-015 7.95139e-016 -13.9345 -4.34362 -22.1001 15.3776 -3.24352 65.28 -1.64283 -1.22757 9.83963 
-201.955 88.6948 -43.7524 0.72865 -1.09722 87.3119 -1.28024 -0.920739 1.66966 1.42766 11.9512 13.2199 3.63057 1.88038 0.040446 2.78299e-015 -5 -0 1.63992 1.1276 -0.815562 -1.30319 11.3693 -11.5562 -1.85516 2.58257 -0.151272 1.98785e-016 -5 -0 -3.35068 -1.36055 -1.50462 0.701525 14.7996 -1.94847 1.59028e-015 2.83268e-015 -0 12.6889 -12.6479 63.2327 4.82909 -0.0820054 -116.722 8.73086 -7.89525 -8.92596 1.59028e-015 2.83268e-015 -0 -13.7899 -4.32743 -22.0588 15.3796 -3.45226 65.3523 -1.30941 -1.30701 9.85838 
-201.934 88.6806 -43.7021 0.731052 -0.975592 87.1442 -1.38133 -0.831931 1.64586 1.41053 11.839 13.4102 3.55647 1.92819 0.0408338 1.21253e-015 -5 4.78906e-015 1.55185 0.940712 -0.828069 -1.36333 11.7421 -11.3801 -1.89707 2.33781 -0.153346 -1.23254e-015 -5 6.38541e-015 -3.41176 -1.12514 -1.46432 0.599736 14.5921 -1.71934 -7.95139e-016 3.77691e-015 -0 12.8054 -12.9909 63.4695 4.86165 -0.0227112 -116.845 8.68268 -7.74419 -8.94311 -7.95139e-016 3.77691e-015 -0 -13.8681 -4.58633 -21.5808 15.4597 -3.60152 65.1683 -1.37405 -1.74361 9.8492 
-201.928 88.677 -43.6452 0.63959 -0.877362 86.9001 -1.46897 -0.809388 1.58877 1.42809 11.6691 13.71 3.54499 1.98823 0.0412311 -2.64385e-015 -5 1.59635e-015 1.51156 0.665118 -0.794056 -1.43294 12.066 -11.1482 -1.87914 2.19149 -0.155526 -3.18055e-015 -5 -0 -3.4025 -1.09409 -1.39576 0.418822 14.6296 -1.44674 -7.95139e-016 -3.47873e-015 7.95139e-016 12.7684 -13.1084 63.4497 4.72743 -0.136454 -116.762 8.78657 -7.95357 -8.91388 -7.95139e-016 -3.47873e-015 7.95139e-016 -13.8831 -4.74688 -20.8579 15.5326 -3.90202 64.5987 -1.47192 -1.6042 9.84487 
-201.869 88.6862 -43.5705 0.588849 -0.8341 87.0466 -1.43241 -0.774288 1.59636 1.39584 11.5467 13.5446 3.51108 2.04769 0.0416345 2.66368e-015 -5 3.1927e-015 1.50093 0.814971 -0.840959 -1.38306 11.7949 -11.219 -1.99311 2.2077 -0.157885 3.9829e-017 -5 -6.38541e-015 -3.40635 -1.22171 -1.50209 0.1848 14.9722 -1.30201 -7.95139e-016 8.44835e-016 -7.95139e-016 12.7174 -13.2506 63.1152 4.61858 -0.0932102 -116.758 9.60884 -8.26024 -8.79326 -7.95139e-016 8.44835e-016 -7.95139e-016 -13.7813 -4.61253 -21.3801 15.4639 -3.8104 64.7746 -1.47898 -1.31923 9.84778 
-201.841 88.6819 -43.464 0.434844 -0.786272 87.0874 -1.37538 -0.899598 1.62255 1.3636 11.5156 13.4697 3.3971 2.0336 0.0420389 5.36701e-016 -5 1.59635e-015 1.51383 0.80363 -0.817341 -1.36383 11.6076 -11.177 -1.92511 2.2304 -0.160472 4.77047e-016 -5 3.1927e-015 -3.47959 -1.24628 -1.56307 0.313228 15.3495 -1.03802 -7.95139e-016 3.97569e-016 7.95139e-016 12.7409 -13.5838 62.7755 4.38986 -0.0456973 -116.533 9.92901 -8.26854 -8.75481 -7.95139e-016 3.97569e-016 7.95139e-016 -13.6703 -4.56465 -20.9834 15.4643 -4.07627 63.7588 -1.38586 -0.64467 9.86105 
-201.825 88.6655 -43.3058 0.244921 -0.730274 86.9818 -1.28587 -1.11221 1.69695 1.31009 11.62 13.471 3.3561 1.98148 0.0424421 -3.04142e-015 -5 1.59635e-015 1.63151 0.739766 -0.647788 -1.44656 11.3735 -11.2331 -1.803 2.27709 -0.164845 -2.26611e-015 -5 -3.1927e-015 -3.59496 -1.082 -1.5538 0.370629 15.7438 -0.70151 -7.95139e-016 -1.2921e-015 -7.95139e-016 12.7438 -14.1985 62.4265 4.232 -0.10354 -116.469 9.47909 -8.10697 -8.82193 -7.95139e-016 -1.2921e-015 -7.95139e-016 -13.5773 -4.63337 -21.7121 15.3753 -4.07632 64.2512 -1.29686 -0.731457 9.86437 
-201.843 88.6348 -43.1039 0.0298014 -0.661918 86.7915 -1.18686 -1.40192 1.76229 1.28145 11.8053 13.5463 3.22697 1.9007 0.0428413 -1.39131e-016 -5 -1.59635e-015 1.69779 0.271022 -0.526145 -1.44229 11.8564 -11.111 -1.91544 1.99311 -0.172227 -1.11323e-015 -5 3.1927e-015 -3.61104 -0.716285 -1.47134 0.371474 15.8099 -0.459372 -1.59028e-015 8.94531e-016 -0 12.6086 -15.1673 62.5694 4.41097 -0.122398 -115.767 8.65365 -8.72061 -8.87063 -1.59028e-015 8.94531e-016 -0 -13.6284 -4.81044 -22.2279 15.3547 -3.87367 64.2392 -1.4943 -0.913906 9.85187 
-201.799 88.5918 -42.7965 -0.152418 -0.608753 86.6781 -0.97853 -1.67456 1.92151 1.23748 12.1035 13.4448 2.99412 1.7331 0.0432321 2.52455e-015 -5 1.59635e-015 2.03666 -0.0442945 -0.0767478 -1.70483 12.2232 -11.4622 -1.91601 1.72673 -0.179636 1.98785e-016 -5 -0 -3.99489 -0.631313 -1.44 0.727828 16.2012 -0.101836 -7.95139e-016 -6.4605e-016 -0 12.9586 -15.6027 61.5695 3.73867 -0.10832 -114.4 9.29843 -9.0149 -8.76786 -7.95139e-016 -6.4605e-016 -0 -13.324 -4.7254 -23.4976 15.2212 -3.39148 65.0041 -1.2603 -1.07958 9.86317 
-201.744 88.5619 -42.509 -0.313804 -0.467895 86.7517 -0.893323 -1.80323 1.97335 1.22484 12.1118 13.2809 2.73005 1.71337 0.0436169 2.26611e-015 -5 3.1927e-015 2.17296 -0.256062 0.0852188 -1.76801 12.4413 -11.7652 -2.0316 1.45389 -0.187409 -4.49257e-015 -5 3.1927e-015 -4.3988 -0.296572 -1.59691 0.921176 16.2191 0.226253 -1.59028e-015 2.5842e-015 -2.38542e-015 13.2835 -16.2934 60.6055 3.05401 -0.111082 -112.564 9.25394 -8.87844 -8.78313 -1.59028e-015 2.5842e-015 -2.38542e-015 -13.0248 -4.68976 -24.1302 15.1629 -3.22414 65.541 -1.05595 -0.781369 9.8768 
-201.623 88.5277 -42.1717 -0.48445 -0.31049 86.9097 -0.81385 -1.92855 1.97774 1.259 12.1576 13.1212 2.46716 1.66101 0.0447158 2.78299e-015 -5 -0 2.18136 -0.40411 0.0118358 -1.61055 12.6192 -11.8752 -2.28243 1.10461 -0.197896 -1.11323e-015 -5 3.1927e-015 -4.6362 0.037658 -1.65329 1.00054 16.2966 0.296443 7.95139e-016 2.03754e-015 7.95139e-016 13.5175 -17.1031 59.6477 2.48881 -0.0586615 -112.17 9.07609 -8.54897 -8.83267 7.95139e-016 2.03754e-015 7.95139e-016 -12.7836 -4.50835 -25.1922 15.0731 -2.93243 66.0465 -1.03858 -0.414883 9.8816 
-201.458 88.4614 -41.7527 -0.623898 -0.290128 87.1574 -0.523834 -2.3634 2.05784 1.31426 12.9832 12.7639 1.96974 1.13873 0.0534628 -2.92212e-015 -5 -1.59635e-015 2.49745 -0.408642 0.187527 -1.59886 12.7092 -12.3685 -2.38732 0.773525 -0.208403 1.19271e-015 -5 -0 -4.74409 0.307272 -1.71577 0.908908 16.3738 0.42021 -1.59028e-015 -1.98785e-015 7.95139e-016 13.7787 -17.8606 58.9041 2.10383 -0.0803561 -111.064 8.67033 -8.80103 -8.86155 -1.59028e-015 -1.98785e-015 7.95139e-016 -12.4765 -4.06554 -25.57 15.0582 -2.85687 66.1707 -1.56124 -0.64355 9.85202 
-201.318 88.3173 -41.3256 -0.824983 -0.417263 87.5778 -0.0534614 -3.67296 2.14589 1.40925 15.3819 12.2299 1.37964 -0.0206174 0.06606 -0 -5 -0 2.89557 -0.639979 0.256725 -1.38353 13.1475 -12.9901 -2.65784 0.189897 -0.227822 -5.16876e-016 -5 3.1927e-015 -4.40918 0.844241 -1.82615 1.02055 16.0814 0.627088 -9.65542e-032 -3.47873e-015 -1.59028e-015 13.9127 -18.9508 58.8721 2.08678 -0.068272 -110.301 8.49388 -9.08951 -8.86249 -9.65542e-032 -3.47873e-015 -1.59028e-015 -12.4148 -3.86616 -26.298 14.9649 -2.78392 66.3929 -1.27613 -0.732205 9.86557 
